<?xml version="1.0" encoding="utf-8"?>
<!-- Generator: Adobe Illustrator 17.0.0, SVG Export Plug-In . SVG Version: 6.00 Build 0)  -->
<!DOCTYPE svg PUBLIC "-//W3C//DTD SVG 1.1//EN" "http://www.w3.org/Graphics/SVG/1.1/DTD/svg11.dtd">
<svg version="1.1" id="Layer_1" xmlns="http://www.w3.org/2000/svg" xmlns:xlink="http://www.w3.org/1999/xlink" x="0px" y="0px"
	 width="282px" height="344.012px" viewBox="0 0 282 344.012" enable-background="new 0 0 282 344.012" xml:space="preserve">
<line fill="none" stroke="#000000" stroke-miterlimit="10" x1="90.895" y1="195.176" x2="118.476" y2="241.825"/>
<line fill="none" stroke="#000000" stroke-miterlimit="10" x1="90.895" y1="195.176" x2="63.315" y2="241.825"/>
<line fill="none" stroke="#000000" stroke-miterlimit="10" x1="63.315" y1="241.825" x2="35.734" y2="288.474"/>
<line fill="none" stroke="#000000" stroke-miterlimit="10" x1="63.315" y1="241.825" x2="90.895" y2="288.474"/>
<g>
	<polyline points="39.868,321.234 36.849,324.253 39.868,327.272 	"/>
	<rect x="31.469" y="321.35" width="5.806" height="5.806"/>
</g>
<g>
	<g>
		<polygon fill="#ED1849" points="35.734,288.474 36.999,316.731 34.47,316.731 		"/>
		<g>
			<path fill="#ED1849" d="M35.734,320.153c-0.597-1.61-1.617-3.608-2.696-4.846l2.696,0.975l2.696-0.975
				C37.35,316.545,36.331,318.543,35.734,320.153z"/>
		</g>
	</g>
</g>
<circle fill="#EEE7E4" stroke="#000000" stroke-miterlimit="10" cx="35.734" cy="288.474" r="18.631"/>
<circle fill="#B7AEA5" cx="35.734" cy="288.474" r="4.917"/>
<g>
	<g>
		<path fill="#ED1849" d="M34.403,285.504c0,0,0.03-0.939,0.083-2.581c0.062-1.653,0.154-4.008,0.345-6.837
			c0.195-2.828,0.494-6.133,1.059-9.651c0.577-3.511,1.441-7.254,2.919-10.795c1.486-3.521,3.667-6.828,6.476-9.103
			c1.39-1.141,2.874-2.056,4.354-2.754c1.496-0.659,2.95-1.19,4.335-1.501c0.685-0.187,1.352-0.312,1.989-0.417
			c0.633-0.127,1.239-0.203,1.81-0.26c1.138-0.156,2.139-0.173,2.959-0.227c0.821-0.033,1.468-0.012,1.907-0.02
			c0.44-0.001,0.674-0.002,0.674-0.002s-0.234,0.011-0.674,0.032c-0.439,0.028-1.084,0.036-1.901,0.105
			c-0.815,0.09-1.809,0.152-2.932,0.357c-0.564,0.082-1.161,0.184-1.781,0.337c-0.625,0.131-1.277,0.284-1.942,0.499
			c-1.348,0.366-2.747,0.951-4.17,1.654c-1.406,0.742-2.793,1.688-4.074,2.837c-2.585,2.294-4.51,5.521-5.785,8.955
			c-1.265,3.455-1.941,7.112-2.351,10.558c-0.397,3.453-0.547,6.707-0.614,9.5c-0.064,2.794-0.05,5.13-0.039,6.76
			c0.02,1.641,0.032,2.578,0.032,2.578L34.403,285.504z"/>
		<g>
			<path fill="#ED1849" d="M35.734,288.938c0.615-1.603,1.657-3.589,2.75-4.815l-2.707,0.945l-2.685-1.005
				C34.159,285.313,35.155,287.322,35.734,288.938z"/>
		</g>
	</g>
</g>
<circle fill="#A5A4A4" stroke="#000000" stroke-miterlimit="10" cx="63.315" cy="241.825" r="9.692"/>
<g>
	<g>
		<path fill="#ED1849" d="M61.983,237.46c0,0,0.03-0.938,0.083-2.581c0.062-1.653,0.154-4.007,0.345-6.837
			c0.195-2.828,0.494-6.133,1.059-9.651c0.577-3.511,1.441-7.254,2.919-10.795c1.486-3.521,3.667-6.828,6.476-9.103
			c1.39-1.141,2.874-2.056,4.354-2.754c1.496-0.659,2.95-1.19,4.335-1.501c0.685-0.187,1.352-0.312,1.989-0.417
			c0.633-0.127,1.239-0.203,1.81-0.26c1.138-0.156,2.139-0.173,2.959-0.227c0.821-0.033,1.468-0.012,1.907-0.02
			c0.44-0.001,0.674-0.002,0.674-0.002s-0.234,0.011-0.674,0.032c-0.439,0.028-1.084,0.036-1.901,0.105
			c-0.815,0.09-1.809,0.152-2.932,0.357c-0.564,0.082-1.161,0.184-1.781,0.337c-0.625,0.131-1.277,0.284-1.942,0.499
			c-1.348,0.366-2.747,0.951-4.17,1.654c-1.406,0.742-2.793,1.688-4.074,2.837c-2.585,2.293-4.51,5.521-5.785,8.955
			c-1.265,3.455-1.941,7.112-2.351,10.557c-0.397,3.453-0.547,6.707-0.614,9.5c-0.064,2.794-0.05,5.13-0.039,6.76
			c0.02,1.641,0.032,2.578,0.032,2.578L61.983,237.46z"/>
		<g>
			<path fill="#ED1849" d="M63.315,240.894c0.615-1.603,1.657-3.589,2.75-4.815l-2.707,0.945l-2.685-1.005
				C61.739,237.268,62.736,239.277,63.315,240.894z"/>
		</g>
	</g>
</g>
<circle fill="#F9F7FB" stroke="#000000" stroke-miterlimit="10" cx="90.895" cy="195.176" r="8.843"/>
<g>
	<g>
		<path fill="#234095" d="M94.459,193.041c0,0,0.233,0.03,0.669,0.087c0.447,0.071,1.052,0.108,1.914,0.277
			c0.427,0.081,0.899,0.171,1.414,0.268c0.509,0.109,1.044,0.263,1.623,0.409c1.151,0.314,2.431,0.763,3.783,1.36
			c1.331,0.642,2.762,1.392,4.099,2.448c1.344,1.034,2.654,2.273,3.776,3.731c1.122,1.456,2.085,3.089,2.878,4.815
			c0.802,1.725,1.417,3.548,1.9,5.393c0.979,3.689,1.454,7.457,1.72,10.978c0.266,3.525,0.334,6.815,0.348,9.633
			c0.011,2.818-0.028,5.164-0.055,6.806c-0.033,1.642-0.052,2.58-0.052,2.58s-0.023-0.938-0.063-2.579
			c-0.046-1.641-0.112-3.986-0.249-6.795c-0.14-2.808-0.354-6.082-0.773-9.561c-0.418-3.474-1.057-7.164-2.164-10.689
			c-0.546-1.763-1.215-3.481-2.044-5.072c-0.82-1.594-1.784-3.067-2.869-4.353c-1.084-1.287-2.318-2.347-3.566-3.222
			c-1.239-0.896-2.56-1.508-3.782-2.035c-1.247-0.483-2.424-0.84-3.49-1.079c-0.536-0.108-1.036-0.23-1.498-0.307
			c-0.461-0.067-0.885-0.128-1.267-0.183c-0.755-0.119-1.443-0.138-1.867-0.186c-0.438-0.037-0.672-0.057-0.672-0.057
			L94.459,193.041z"/>
		<g>
			<path fill="#234095" d="M90.895,194.245c1.576,0.682,3.517,1.805,4.696,2.949l-0.831-2.744l1.116-2.64
				C94.583,192.821,92.535,193.734,90.895,194.245z"/>
		</g>
	</g>
</g>
<circle fill="#FEFCEB" stroke="#000000" stroke-miterlimit="10" cx="118.476" cy="241.825" r="18.631"/>
<circle fill="#FED402" cx="118.476" cy="241.825" r="10.065"/>
<g>
	<g>
		<path fill="#234095" d="M66.879,239.69c0,0,0.233,0.03,0.669,0.087c0.447,0.071,1.052,0.108,1.914,0.277
			c0.427,0.081,0.899,0.171,1.414,0.268c0.509,0.109,1.044,0.263,1.623,0.409c1.151,0.314,2.431,0.763,3.783,1.36
			c1.331,0.642,2.762,1.392,4.099,2.448c1.344,1.034,2.654,2.273,3.776,3.731c1.122,1.456,2.085,3.089,2.878,4.815
			c0.802,1.725,1.417,3.548,1.9,5.393c0.979,3.689,1.454,7.457,1.72,10.978c0.266,3.525,0.334,6.815,0.348,9.633
			c0.011,2.818-0.028,5.164-0.055,6.806c-0.033,1.642-0.052,2.58-0.052,2.58s-0.023-0.938-0.063-2.579
			c-0.046-1.641-0.112-3.986-0.249-6.795c-0.14-2.808-0.354-6.082-0.773-9.561c-0.418-3.474-1.057-7.164-2.164-10.689
			c-0.546-1.763-1.215-3.481-2.044-5.072c-0.82-1.594-1.784-3.067-2.869-4.353c-1.084-1.287-2.318-2.347-3.566-3.222
			c-1.239-0.896-2.56-1.508-3.782-2.035c-1.247-0.483-2.424-0.84-3.49-1.079c-0.536-0.108-1.036-0.229-1.498-0.307
			c-0.461-0.067-0.885-0.128-1.267-0.183c-0.755-0.119-1.443-0.138-1.867-0.186c-0.438-0.037-0.672-0.057-0.672-0.057L66.879,239.69
			z"/>
		<g>
			<path fill="#234095" d="M63.315,240.894c1.576,0.682,3.517,1.805,4.696,2.949l-0.831-2.744l1.116-2.64
				C67.003,239.471,64.954,240.383,63.315,240.894z"/>
		</g>
	</g>
</g>
<circle fill="#DFF2FC" stroke="#000000" stroke-miterlimit="10" cx="90.895" cy="288.474" r="18.631"/>
<circle fill="#2970B8" cx="90.895" cy="288.474" r="6.113"/>
<line fill="none" stroke="#000000" stroke-miterlimit="10" x1="219.141" y1="195.176" x2="246.722" y2="241.825"/>
<line fill="none" stroke="#000000" stroke-miterlimit="10" x1="219.141" y1="195.176" x2="191.561" y2="241.825"/>
<line fill="none" stroke="#000000" stroke-miterlimit="10" x1="191.561" y1="241.825" x2="163.98" y2="288.474"/>
<line fill="none" stroke="#000000" stroke-miterlimit="10" x1="191.561" y1="241.825" x2="219.141" y2="288.474"/>
<g>
	<polyline points="195.689,273.234 192.67,276.254 195.689,279.273 	"/>
	<rect x="187.29" y="273.351" width="5.806" height="5.806"/>
</g>
<g>
	<g>
		<polygon fill="#ED1849" points="191.555,240.61 192.82,268.867 190.291,268.867 		"/>
		<g>
			<path fill="#ED1849" d="M191.555,272.288c-0.597-1.61-1.617-3.608-2.696-4.846l2.696,0.975l2.696-0.975
				C193.171,268.681,192.152,270.678,191.555,272.288z"/>
		</g>
	</g>
</g>
<circle fill="#A5A4A4" stroke="#000000" stroke-miterlimit="10" cx="191.561" cy="241.825" r="9.692"/>
<g>
	<g>
		<path fill="#234095" d="M163.98,288.474c0,0-0.019-0.938-0.052-2.58c-0.027-1.642-0.066-3.988-0.055-6.806
			c0.014-2.817,0.082-6.108,0.348-9.633c0.266-3.521,0.742-7.289,1.72-10.978c0.482-1.844,1.098-3.668,1.9-5.393
			c0.793-1.727,1.756-3.359,2.878-4.815c1.121-1.458,2.432-2.697,3.776-3.731c1.337-1.056,2.769-1.806,4.099-2.448
			c1.352-0.597,2.632-1.046,3.783-1.36c0.578-0.145,1.117-0.3,1.62-0.408c0.505-0.096,0.969-0.185,1.389-0.265
			c0.839-0.167,1.504-0.212,1.955-0.283c0.452-0.058,0.694-0.089,0.694-0.089l0.211,2.673c0,0-0.225,0.019-0.647,0.055
			c-0.419,0.048-1.048,0.06-1.826,0.181c-0.39,0.056-0.822,0.119-1.293,0.187c-0.468,0.079-0.964,0.199-1.501,0.308
			c-1.066,0.24-2.244,0.596-3.49,1.079c-1.222,0.527-2.543,1.139-3.782,2.035c-1.248,0.875-2.481,1.935-3.566,3.222
			c-1.084,1.285-2.048,2.758-2.869,4.352c-0.829,1.591-1.498,3.309-2.044,5.072c-1.107,3.524-1.746,7.215-2.164,10.689
			c-0.419,3.478-0.634,6.753-0.773,9.561c-0.136,2.809-0.202,5.154-0.249,6.795C164.003,287.536,163.98,288.474,163.98,288.474z"/>
		<g>
			<path fill="#234095" d="M191.561,240.894c-1.576,0.682-3.517,1.805-4.696,2.949l0.831-2.744l-1.116-2.64
				C187.873,239.471,189.921,240.383,191.561,240.894z"/>
		</g>
	</g>
</g>
<circle fill="#EEE7E4" stroke="#000000" stroke-miterlimit="10" cx="163.98" cy="288.474" r="18.631"/>
<circle fill="#B7AEA5" cx="163.98" cy="288.474" r="4.917"/>
<g>
	<g>
		<path fill="#ED1849" d="M190.229,237.46c0,0,0.03-0.938,0.083-2.581c0.062-1.653,0.154-4.007,0.345-6.837
			c0.195-2.828,0.494-6.133,1.059-9.651c0.577-3.511,1.441-7.254,2.919-10.795c1.486-3.521,3.667-6.828,6.476-9.103
			c1.39-1.141,2.874-2.056,4.354-2.754c1.496-0.659,2.95-1.19,4.335-1.501c0.685-0.187,1.352-0.312,1.989-0.417
			c0.633-0.127,1.239-0.203,1.81-0.26c1.138-0.156,2.139-0.173,2.959-0.227c0.821-0.033,1.468-0.012,1.907-0.02
			c0.44-0.001,0.674-0.002,0.674-0.002s-0.234,0.011-0.674,0.032c-0.439,0.028-1.084,0.036-1.901,0.105
			c-0.815,0.09-1.809,0.152-2.932,0.357c-0.564,0.082-1.161,0.184-1.781,0.337c-0.625,0.131-1.277,0.284-1.942,0.499
			c-1.348,0.366-2.747,0.951-4.17,1.654c-1.406,0.742-2.793,1.688-4.074,2.837c-2.585,2.293-4.51,5.521-5.785,8.955
			c-1.265,3.455-1.941,7.112-2.351,10.557c-0.397,3.453-0.547,6.707-0.614,9.5c-0.064,2.794-0.05,5.13-0.039,6.76
			c0.02,1.641,0.032,2.578,0.032,2.578L190.229,237.46z"/>
		<g>
			<path fill="#ED1849" d="M191.561,240.894c0.615-1.603,1.657-3.589,2.75-4.815l-2.707,0.945l-2.685-1.005
				C189.985,237.268,190.982,239.277,191.561,240.894z"/>
		</g>
	</g>
</g>
<circle fill="#F9F7FB" stroke="#000000" stroke-miterlimit="10" cx="219.141" cy="195.176" r="8.843"/>
<g>
	<g>
		<path fill="#234095" d="M222.705,193.041c0,0,0.233,0.03,0.669,0.087c0.447,0.071,1.052,0.108,1.914,0.277
			c0.427,0.081,0.899,0.171,1.414,0.268c0.509,0.109,1.044,0.263,1.623,0.409c1.151,0.314,2.431,0.763,3.783,1.36
			c1.331,0.642,2.762,1.392,4.099,2.448c1.344,1.034,2.654,2.273,3.776,3.731c1.122,1.456,2.085,3.089,2.878,4.815
			c0.802,1.725,1.417,3.548,1.9,5.393c0.979,3.689,1.454,7.457,1.72,10.978c0.266,3.525,0.334,6.815,0.348,9.633
			c0.011,2.818-0.028,5.164-0.055,6.806c-0.033,1.642-0.052,2.58-0.052,2.58s-0.023-0.938-0.063-2.579
			c-0.046-1.641-0.112-3.986-0.249-6.795c-0.14-2.808-0.354-6.082-0.773-9.561c-0.418-3.474-1.057-7.164-2.164-10.689
			c-0.546-1.763-1.215-3.481-2.044-5.072c-0.82-1.594-1.784-3.067-2.869-4.353c-1.084-1.287-2.318-2.347-3.566-3.222
			c-1.239-0.896-2.56-1.508-3.782-2.035c-1.247-0.483-2.424-0.84-3.49-1.079c-0.536-0.108-1.036-0.23-1.498-0.307
			c-0.461-0.067-0.885-0.128-1.267-0.183c-0.755-0.119-1.443-0.138-1.867-0.186c-0.438-0.037-0.672-0.057-0.672-0.057
			L222.705,193.041z"/>
		<g>
			<path fill="#234095" d="M219.141,194.245c1.576,0.682,3.517,1.805,4.696,2.949l-0.831-2.744l1.116-2.64
				C222.829,192.821,220.781,193.734,219.141,194.245z"/>
		</g>
	</g>
</g>
<circle fill="#FEFCEB" stroke="#000000" stroke-miterlimit="10" cx="246.722" cy="241.825" r="18.631"/>
<circle fill="#FED402" cx="246.722" cy="241.825" r="10.065"/>
<g>
	<g>
		<path fill="#234095" d="M195.125,239.69c0,0,0.233,0.03,0.669,0.087c0.447,0.071,1.052,0.108,1.914,0.277
			c0.427,0.081,0.899,0.171,1.414,0.268c0.509,0.109,1.044,0.263,1.623,0.409c1.151,0.314,2.431,0.763,3.783,1.36
			c1.331,0.642,2.762,1.392,4.099,2.448c1.344,1.034,2.654,2.273,3.776,3.731c1.122,1.456,2.085,3.089,2.878,4.815
			c0.802,1.725,1.417,3.548,1.9,5.393c0.979,3.689,1.454,7.457,1.72,10.978c0.266,3.525,0.334,6.815,0.348,9.633
			c0.011,2.818-0.028,5.164-0.055,6.806c-0.033,1.642-0.052,2.58-0.052,2.58s-0.023-0.938-0.063-2.579
			c-0.046-1.641-0.112-3.986-0.249-6.795c-0.14-2.808-0.354-6.082-0.773-9.561c-0.418-3.474-1.057-7.164-2.164-10.689
			c-0.546-1.763-1.215-3.481-2.044-5.072c-0.82-1.594-1.784-3.067-2.869-4.353c-1.084-1.287-2.318-2.347-3.566-3.222
			c-1.239-0.896-2.56-1.508-3.782-2.035c-1.247-0.483-2.424-0.84-3.49-1.079c-0.536-0.108-1.036-0.229-1.498-0.307
			c-0.461-0.067-0.885-0.128-1.267-0.183c-0.755-0.119-1.443-0.138-1.867-0.186c-0.438-0.037-0.672-0.057-0.672-0.057
			L195.125,239.69z"/>
		<g>
			<path fill="#234095" d="M191.561,240.894c1.576,0.682,3.517,1.805,4.696,2.949l-0.831-2.744l1.116-2.64
				C195.249,239.471,193.2,240.383,191.561,240.894z"/>
		</g>
	</g>
</g>
<circle fill="#DFF2FC" stroke="#000000" stroke-miterlimit="10" cx="219.141" cy="288.474" r="18.631"/>
<circle fill="#2970B8" cx="219.141" cy="288.474" r="6.113"/>
<circle fill="#F9F7FB" stroke="#000000" stroke-miterlimit="10" cx="144.737" cy="93.122" r="87.886"/>
<circle fill="#A5A4A4" stroke="#000000" stroke-miterlimit="10" cx="91.302" cy="93.122" r="27.217"/>
<polyline opacity="0.8" fill="#292C2D" points="55.211,44.628 73.291,91.214 70.65,96.236 22.224,86.83 "/>
<polyline opacity="0.7" fill="#316E8A" points="20.601,128.58 88.659,88.805 96.16,96.294 61.832,167.991 "/>
<polyline opacity="0.7" fill="#80643E" points="234.283,177.162 140.98,100.01 149.298,86.747 262.113,127.369 "/>
<g>
	<g>
		
			<image overflow="visible" width="107.87" height="107.87" xlink:href="C4CDB9D7D0C99729.png"  transform="matrix(1 0 0 1 90.8018 39.1874)"/>
	</g>
</g>
<circle fill="#FFFFFF" stroke="#000000" stroke-miterlimit="10" cx="91.588" cy="93.372" r="5.43"/>
<g>
	<g>
		
			<image overflow="visible" width="40.586" height="40.586" xlink:href="C4CDB9D7D0C9972B.png"  transform="matrix(1 0 0 1 71.0087 73.0798)"/>
	</g>
</g>
<circle fill="#FFFFFF" stroke="#000000" stroke-miterlimit="10" cx="71.526" cy="93.372" r="2.863"/>
<circle fill="#EEE7E4" stroke="#000000" stroke-miterlimit="10" cx="30.638" cy="59.559" r="28.75"/>
<circle fill="#DFF2FC" stroke="#000000" stroke-miterlimit="10" cx="38.708" cy="150.908" r="28.75"/>
<circle fill="#2970B8" cx="38.708" cy="150.908" r="9.13"/>
<circle fill="#2C58A8" cx="91.588" cy="93.372" r="1.265"/>
<g>
	<polyline points="17.718,54.558 13.67,58.606 17.718,62.654 	"/>
	<rect x="6.457" y="54.714" width="7.784" height="7.784"/>
</g>
<circle fill="#B7AEA5" cx="30.638" cy="59.559" r="4.917"/>
<circle fill="#B7AEA5" cx="71.526" cy="93.372" r="0.598"/>
<circle fill="#FFFFFF" stroke="#000000" stroke-miterlimit="10" cx="144.737" cy="93.122" r="7.845"/>
<circle fill="#FEFCEB" stroke="#000000" stroke-miterlimit="10" cx="251.362" cy="154.037" r="28.75"/>
<circle fill="#FED402" cx="251.362" cy="154.037" r="17.079"/>
<circle fill="#FED402" cx="144.737" cy="93.122" r="3.502"/>
<text transform="matrix(1 0 0 1 8.5208 72.4813)" font-family="'MyriadPro-Bold'" font-size="12">A</text>
<text transform="matrix(1 0 0 1 22.224 327.2723)" font-family="'MyriadPro-Bold'" font-size="12">A</text>
<g>
	<polyline points="101.773,89.074 105.821,93.122 101.773,97.17 	"/>
	<rect x="105.25" y="89.23" width="7.784" height="7.784"/>
</g>
<text transform="matrix(1 0 0 1 103.2503 106.8916)" font-family="'MyriadPro-Bold'" font-size="12">B</text>
<text transform="matrix(1 0 0 1 187.6315 288.9386)" font-family="'MyriadPro-Bold'" font-size="12">B</text>
<rect x="175.475" y="165.604" width="14.804" height="14.804"/>
<text transform="matrix(1 0 0 1 179.5474 177.1624)" fill="#FFFFFF" font-family="'MyriadPro-Bold'" font-size="12">1</text>
<rect x="94.371" y="110.483" width="14.804" height="14.804"/>
<text transform="matrix(1 0 0 1 98.443 122.0413)" fill="#FFFFFF" font-family="'MyriadPro-Bold'" font-size="12">2</text>
<rect x="261.039" y="172.256" width="14.804" height="14.804"/>
<text transform="matrix(1 0 0 1 265.1115 183.8144)" fill="#FFFFFF" font-family="'MyriadPro-Bold'" font-size="12">3</text>
<rect x="49.449" y="166.204" width="14.804" height="14.804"/>
<text transform="matrix(1 0 0 1 53.5212 177.7625)" fill="#FFFFFF" font-family="'MyriadPro-Bold'" font-size="12">5</text>
<rect x="37.082" y="80.54" width="14.804" height="14.804"/>
<text transform="matrix(1 0 0 1 41.1545 92.0989)" fill="#FFFFFF" font-family="'MyriadPro-Bold'" font-size="12">4</text>
</svg>
